<svg id="Layer_1" data-name="Layer 1" xmlns="http://www.w3.org/2000/svg" viewBox="0 0 75.83 60.03"><defs><style>.cls-1{fill:#5cb847;}</style></defs><title>1</title><path class="cls-1" d="M37.84,60a2.75,2.75,0,0,1-1.32-.3c-8.4-4.42-19.14-10.67-27.73-19.92-4.68-5-7.43-10.16-8.42-15.66A19.94,19.94,0,0,1,5.16,6.68,20.82,20.82,0,0,1,22.69.24C28.9.85,33.77,4,37.92,10.11a22,22,0,0,1,6.16-6.48C51-1,58.66-1.21,66.17,3.1c6.92,4,10.23,10.51,9.58,18.93-.49,6.37-3.38,12.16-9.09,18.23-5.42,5.76-12,10.79-21.47,16.29-1.8,1.05-3.71,2.09-5.68,3.1a3.88,3.88,0,0,1-1.67.38"/></svg>