<svg xmlns="http://www.w3.org/2000/svg" xmlns:xlink="http://www.w3.org/1999/xlink" viewBox="0 0 428.05 231.23"><defs><style>.cls-1{fill:none;}.cls-2{isolation:isolate;}.cls-3{fill:#fde3d4;}.cls-4{fill:#201615;}.cls-5{fill:#fbc8b0;}.cls-6{fill:#34251d;}.cls-7{fill:#88634c;}.cls-8{fill:#fff;}.cls-9{opacity:0.33;mix-blend-mode:multiply;}.cls-10{clip-path:url(#clip-path);}.cls-11{clip-path:url(#clip-path-2);}.cls-12{fill:url(#linear-gradient);}.cls-13{clip-path:url(#clip-path-3);}.cls-14{fill:#5cb847;}.cls-15{fill:#58853c;}.cls-16{fill:#ffefb7;}.cls-17{clip-path:url(#clip-path-4);}.cls-18{clip-path:url(#clip-path-5);}.cls-19{clip-path:url(#clip-path-6);}.cls-20{clip-path:url(#clip-path-7);}.cls-21{fill:#da5da1;}.cls-22{fill:#f7aeaf;}</style><clipPath id="clip-path"><rect class="cls-1" x="68.88" y="75.98" width="290.68" height="155.24"/></clipPath><clipPath id="clip-path-2"><path class="cls-1" d="M359.11,207a9.5,9.5,0,0,0-2.17-3.74,10,10,0,0,0-5.38-3v-2a9.91,9.91,0,0,0,4-7.9v-11a9.28,9.28,0,0,0-.27-2.24,9.84,9.84,0,0,0-2.81-4.89,8.34,8.34,0,0,0-.92-.77v-.58a10,10,0,0,0,3.22-1.3,9.83,9.83,0,0,0,4.64-8.34V118.79a21.53,21.53,0,0,0-4.57-13.29,21.13,21.13,0,0,0-1.94-2.18h0a21.9,21.9,0,0,0-12.28-6.09h0a21.59,21.59,0,0,0-3.14-.22c-1,0-2,0-2.9.08a39,39,0,0,0-7.63,1.17l-.27.07-.62-.33a10,10,0,0,0-2.4-.8,9.72,9.72,0,0,0-2-.19H302.56a10,10,0,0,0-6.82,2.68q-.33.32-.63.66l-.09.09a38.11,38.11,0,0,0-15.7-4.88c-1.08-.09-2.18-.14-3.28-.14a38.72,38.72,0,0,0-4.72.29,38.2,38.2,0,0,0-21.51,10.11l-.28-.26a38.72,38.72,0,0,0-5.36-4.14,38.21,38.21,0,0,0-12-5h-.05c-1-.23-2.08-.43-3.14-.58l-.25,0a37.62,37.62,0,0,0-5.22-.36,38.28,38.28,0,0,0-19.65,5.43,10,10,0,0,0-7.31-5.76,9.83,9.83,0,0,0-1.81-.17,44.72,44.72,0,0,0-12.44,1.75c-.62.17-1.24.36-1.84.57A10,10,0,0,0,177,96.07a11.07,11.07,0,0,0-1.3-.08H157.08a8.1,8.1,0,0,0-1,.05,9.91,9.91,0,0,0-4,1.26,9.81,9.81,0,0,0-3.11-9,48.13,48.13,0,0,0-70.63,6.82A45.43,45.43,0,0,0,75.81,99,46.8,46.8,0,0,0,69,120.56c-.07,1-.1,2-.1,3a47.49,47.49,0,0,0,12,31.47,9.84,9.84,0,0,0-5.56,8.85v56.38a9.9,9.9,0,0,0,9.94,9.86h14.84a9.91,9.91,0,0,0,5.07-1.39,9.94,9.94,0,0,0,5.08,1.39h14.83a9.94,9.94,0,0,0,7.89-3.87,25,25,0,0,0,12.83,3.53,26.25,26.25,0,0,0,3.77-.28,10.17,10.17,0,0,0,2.36.28h13.45a9.9,9.9,0,0,0,5.41-1.59,10.07,10.07,0,0,0,2.41.29h13.54a9.89,9.89,0,0,0,9.93-9.86V200.23a4.71,4.71,0,0,1,2.23-1.9l5.73,24.51a9.91,9.91,0,0,0,9.67,7.64h18.24a9.93,9.93,0,0,0,9.68-7.64l.88-3.77a31,31,0,0,0,38.53,6.45A9.91,9.91,0,0,0,287.4,229c.26.05,1.57.32,3.56.56a60,60,0,0,0,7.63.49c12.15,0,19.29-3.8,23.48-8.27a23.7,23.7,0,0,0,29.65,6.85,9.83,9.83,0,0,0,5.13-6.44l2.42-9.91a9.8,9.8,0,0,0-.16-5.32M150.83,195.44v6.25a4.79,4.79,0,0,1-2.84.91,4.06,4.06,0,1,1,0-8.07,4.79,4.79,0,0,1,2.84.91m122.49-10.05-7.93,7.48c0-.15,0-.3,0-.45a7.08,7.08,0,0,1,7.07-7.08,8.14,8.14,0,0,1,.87,0"/></clipPath><linearGradient id="linear-gradient" x1="1114.46" y1="1392.54" x2="1114.96" y2="1392.54" gradientTransform="matrix(0, -312.01, -312.01, 0, 434699.87, 347953.85)" gradientUnits="userSpaceOnUse"><stop offset="0" stop-color="#2d3b1d"/><stop offset="1" stop-color="#3e5527"/></linearGradient><clipPath id="clip-path-3"><path class="cls-1" d="M143.49,198.57a4.29,4.29,0,0,1,4.5-4,4.79,4.79,0,0,1,2.84.91v6.25a4.79,4.79,0,0,1-2.84.91,4.29,4.29,0,0,1-4.5-4m121.89-6.15a7.08,7.08,0,0,1,7.07-7.08,8.14,8.14,0,0,1,.87,0l-7.93,7.48c0-.15,0-.3,0-.45M76.5,91.88a46.14,46.14,0,0,0-3.41,6.21,47,47,0,0,0-4.21,19.48c0,1,0,2,.1,3A47.16,47.16,0,0,0,80.91,149a10,10,0,0,0-3,2.24,9.78,9.78,0,0,0-2.56,6.61v56.38a9.9,9.9,0,0,0,9.94,9.86h14.84a9.91,9.91,0,0,0,5.07-1.39,9.94,9.94,0,0,0,5.08,1.39h14.83a9.94,9.94,0,0,0,7.89-3.87,25,25,0,0,0,12.83,3.53,26.25,26.25,0,0,0,3.77-.28,10.17,10.17,0,0,0,2.36.28h13.45a9.9,9.9,0,0,0,5.41-1.59,10.07,10.07,0,0,0,2.41.29h13.54a9.89,9.89,0,0,0,9.93-9.86V194.26a4.71,4.71,0,0,1,2.23-1.9l5.73,24.51a9.91,9.91,0,0,0,9.67,7.63h18.24a9.92,9.92,0,0,0,9.68-7.63l.88-3.77a31,31,0,0,0,38.53,6.45,9.91,9.91,0,0,0,5.74,3.51c.26.05,1.57.32,3.56.56a60,60,0,0,0,7.63.49c12.15,0,19.29-3.8,23.48-8.27a23.7,23.7,0,0,0,29.65,6.85,9.83,9.83,0,0,0,5.13-6.44l2.26-9.26.16-.65a9.8,9.8,0,0,0-2.33-9.06,9.89,9.89,0,0,0-5.38-3v-2a9.81,9.81,0,0,0,4-7.9v-11a9.69,9.69,0,0,0-.78-3.81,10.07,10.07,0,0,0-3.22-4.1v-.57a9.89,9.89,0,0,0,7.86-9.64V112.82a21.51,21.51,0,0,0-3.2-11.31A22,22,0,0,0,337.47,91a41.1,41.1,0,0,0-10.8,1.32,10,10,0,0,0-5-1.32H302.56A10,10,0,0,0,295,94.47a38.32,38.32,0,0,0-45.21,5.38l-.28-.26a38.32,38.32,0,0,0-45.63-4.71A10,10,0,0,0,194.78,89a45.15,45.15,0,0,0-14.28,2.31A10,10,0,0,0,175.65,90H157.08a9.89,9.89,0,0,0-5,1.31,9.81,9.81,0,0,0-3.11-9A48.14,48.14,0,0,0,76.5,91.88"/></clipPath><clipPath id="clip-path-4"><path class="cls-1" d="M352.11,98.48a70.94,70.94,0,0,0,.86-22A71.64,71.64,0,0,1,355,98a96.92,96.92,0,0,1,29-3.65,96,96,0,0,0-28.75,7.55c14.52,17.08,35.06-4.57,46-6.74-5.58-6.93-27.73-16.24-40.77-4.55,4-10.91-5.33-23.8-10.84-26.54.18,8.29-12.2,26.61,2.48,34.38"/></clipPath><clipPath id="clip-path-5"><path class="cls-1" d="M354.49,177.46A95.71,95.71,0,0,0,380,162.23a97,97,0,0,1-22.91,18.13,71.59,71.59,0,0,1,14,16.52,70.34,70.34,0,0,0-16.31-14.8c-4.73,15.92,17,19.92,22.8,25.86,1.91-5.86-.74-21.56-11.34-26.33,17.48-1.12,26.35-23.45,25.32-32.28-9.24,6.31-39.09,5.8-37.07,28.13"/></clipPath><clipPath id="clip-path-6"><path class="cls-1" d="M66.06,181.61c-10.6,4.77-13.25,20.47-11.34,26.33C60.51,202,82.25,198,77.51,182.08a70.49,70.49,0,0,0-16.3,14.8,71.56,71.56,0,0,1,14-16.52,97.19,97.19,0,0,1-22.9-18.13,95.71,95.71,0,0,0,25.53,15.23c2-22.33-27.83-21.82-37.07-28.13-1,8.83,7.84,31.16,25.32,32.28"/></clipPath><clipPath id="clip-path-7"><path class="cls-1" d="M67.83,88.32c-14.91-9.17-35,3.93-39.31,11.74,11.19.18,35.26,17.83,46.51-1.56a95.74,95.74,0,0,0-29.64-2.31,96.84,96.84,0,0,1,29.17-1.57A71.56,71.56,0,0,1,72.7,73.06a70.76,70.76,0,0,0,4.76,21.5c13.06-10.26-2.39-26.09-3.68-34.28-4.94,3.68-11.84,18-6,28"/></clipPath></defs><title>1</title><g class="cls-2"><g id="Layer_1" data-name="Layer 1"><path class="cls-3" d="M214,67c-3.07,4.22-7.9,5.94-10.79,3.84s-2.73-7.23.34-11.45,7.91-5.94,10.79-3.84S217.08,62.81,214,67"/><path class="cls-4" d="M206.11,72.68a5.78,5.78,0,0,1-3.44-1.07,6.51,6.51,0,0,1-2.43-5.7,12.77,12.77,0,0,1,2.58-7c3.36-4.63,8.77-6.44,12.06-4s3.22,8.1-.14,12.72a12.9,12.9,0,0,1-5.9,4.61,8,8,0,0,1-2.73.5m5.3-17.1c-2.32,0-5.11,1.62-7.12,4.38a11,11,0,0,0-2.23,6,4.26,4.26,0,0,0,6.17,4.49,11,11,0,0,0,5-4c2.77-3.8,3-8.37.54-10.17a4,4,0,0,0-2.4-.74"/><path class="cls-3" d="M142.1,68.54c2.61,4.52,2.22,9.63-.87,11.42s-7.72-.44-10.33-5-2.22-9.64.87-11.42,7.71.43,10.33,5"/><path class="cls-4" d="M138.88,81.47c-3.1,0-6.61-2.27-8.77-6-2.86-5-2.32-10.63,1.2-12.66a6.52,6.52,0,0,1,6.2.08,12.84,12.84,0,0,1,5.37,5.21c2.86,5,2.32,10.63-1.2,12.67a5.56,5.56,0,0,1-2.8.72m-4.72-17.6a3.87,3.87,0,0,0-1.94.5c-2.65,1.53-2.89,6.09-.53,10.17s6.43,6.16,9.08,4.63,2.89-6.1.54-10.18a11.13,11.13,0,0,0-4.59-4.48,6.07,6.07,0,0,0-2.56-.64"/><path class="cls-3" d="M205,64.82c7.63,36.85-63.35,41.19-63.94,6,0,0-18.08-30.21,2.46-34.06s60.24-22,62.6-3.78A93.91,93.91,0,0,1,205,64.82"/><path class="cls-5" d="M142.86,71.41s-10.67-29.51,10.2-30.59c-.47,2.69,6.29.54,17.41-1.52-.44,2.08,10.75,1.57,17.13-2.69-.46,4,15.55,2.52,18.89-.4-.1-1.07-.22-2.17-.37-3.28-2.35-18.18-42.06-.06-62.59,3.78s-2.46,34.06-2.46,34.06a21.5,21.5,0,0,0,7.1,16c-1.82-3.6-5.87-10.63-5.31-15.35"/><path class="cls-4" d="M172.47,95.87a42.08,42.08,0,0,1-17.89-3.77c-9.06-4.32-14.17-11.79-14.41-21.07-1.26-2.16-10.61-18.76-6.18-28.59,1.58-3.53,4.74-5.76,9.37-6.62,5.17-1,11.58-2.86,18.36-4.85,16.51-4.86,33.58-9.88,41.35-4.81a8.89,8.89,0,0,1,4,6.65,96.74,96.74,0,0,1-1.09,32c2.39,11.91-3.26,19.24-8.44,23.3-6.46,5.07-15.77,7.74-25,7.74m21.59-70c-8.56,0-20.73,3.58-31.82,6.85-6.83,2-13.28,3.9-18.55,4.89-4,.75-6.71,2.63-8,5.58-4.25,9.43,6.1,26.94,6.21,27.12l.12.2v.25c.14,8.66,4.89,15.65,13.37,19.69,12.64,6,30.66,4.37,41-3.75,4.8-3.77,10-10.59,7.74-21.7l-.05-.2.05-.21a93.34,93.34,0,0,0,1.1-31.54,7,7,0,0,0-3.15-5.37c-2-1.28-4.72-1.81-8-1.81"/><path class="cls-4" d="M128.7,21.73a9.12,9.12,0,0,0-3.31.46,10.84,10.84,0,0,1,6.15-3c-8,.32-12.85-1.59-12.85-1.59,8.71,1,16.43-5.16,16.43-5.16-4.47,1.77-10.66,1.26-10.66,1.26C136.1,10.52,146.1,0,166.85,0s27.55,5.54,30.76,12.61c0,0-.11-8-9.18-11.4,7.26-.7,14.09,5.37,11.88,11.49,0,0,3.55-3.93,8.51.56a13.68,13.68,0,0,0-4.09.23s11.51,1.59,11.51,19.73a41.4,41.4,0,0,1-5.83,21.55l-5.4,10s2.56-23.45-3.07-34.81c0,0-4.56,5.31-9.91,7.12,0,0,4.37-4.14,3.86-9.07,0,0-5.59,6.56-22.24,10.1,0,0,4.42-2.52,5.07-4.8,0,0-17.31,7.31-30.57,7.87,0,0,4.88-2.19,6.23-4.52C148.1,40.53,137,36.11,137,48.3c0,7.35,2.46,13.17,4,22.47,0,0-4.37-9.21-9.16-8.09-10.42-15.87-8-23.08-8-23.08a19.78,19.78,0,0,1,4.79-17.87"/><path class="cls-6" d="M131.4,21.82c-4.7,5-6.52,12.89-.56,11.36,0,0,3.58,5.35,22.47,1.3,0,0,18.71.37,22.57-7.86a5.33,5.33,0,0,1-1.4,4.28s13.22.28,16.8-10.52a14.72,14.72,0,0,1,.33,4.93s3.81-7.07,1.63-10.61S181,6.37,175,6a18.43,18.43,0,0,1,3.35-.88s-23.42-3.87-38,7.54c14.8-4.66,35.74-5.49,42.35-2,0,0-33.32-5.91-49.19,12a3.16,3.16,0,0,0-2.18-.89"/><path class="cls-7" d="M166.25,19.17c-6.56.61-28.11-8.33-33.5,8.1a27.5,27.5,0,0,0,6.88,0,13.92,13.92,0,0,1-2.84,4.14s2.7,1.39,4.19,1.35a7.18,7.18,0,0,1-2.46,2.63c17.54-3,20.75-12.59,27.73-16.22"/><path class="cls-7" d="M170.72,4.89c-5.14,1.28-10.2,2.17-15.28,3.46s-9.94,2.8-15,4.31c8.1-6.66,20-9.36,30.3-7.77"/><path class="cls-7" d="M170.06,2.33c6.61,1.11,16.24,2.14,21.45,9.21,0,0,2.28-.1,3.08-1.4,0,0-5-7.92-24.53-7.81"/><path class="cls-7" d="M194.59,14.05c4.09,4.24,5.3,11,5.3,11,1.58-5.3-1.26-9.63-5.3-11"/><path class="cls-7" d="M211.8,47.41c2.47-15.58.7-26.19-9.91-31.73,12.15-1.63,16.19,20,9.91,31.73"/><path class="cls-7" d="M210.82,38.29c-.32,4.43-2,16.06-2,16.06,3.58-6.05,2-16.06,2-16.06"/><path class="cls-4" d="M145,52.53c-.74-8.05,9.73-10.65,9.73-6.42,0,4-4.79.33-9.73,6.42"/><path class="cls-4" d="M148.85,73.29a4,4,0,0,1,1.55-1.4s-6.18-16,2.91-18.17c4.21-1,11.17,4.82,10,16.91-9.33,0-14.42,2.66-14.42,2.66"/><path class="cls-8" d="M151.5,71.19c.72-.53,3.81-.93,3.81-.93-5.65-5.21-3.51-15.52,2.77-13.47-4.28-4.26-12.72-.26-6.58,14.4"/><path class="cls-8" d="M157.87,61a2,2,0,1,1-2-2.14,2.08,2.08,0,0,1,2,2.14"/><path class="cls-4" d="M197.57,46c-1.76-7.89-12.52-7.17-11.23-3.14,1.23,3.81,4.67-1.16,11.23,3.14"/><path class="cls-4" d="M200.24,66.92a4.06,4.06,0,0,0-1.91-.85s1-17.14-8.33-16.41c-4.31.33-9.16,8-4.31,19.14,8.89-2.85,14.55-1.88,14.55-1.88"/><path class="cls-8" d="M197.07,65.74c-.85-.29-3.91.28-3.91.28,3.78-6.69-1.41-15.85-6.76-12,2.77-5.36,12-4.14,10.67,11.7"/><path class="cls-8" d="M187.9,58a2,2,0,1,0,1.25-2.65A2.08,2.08,0,0,0,187.9,58"/><path class="cls-4" d="M171.79,72.39c-.81-3,4-5.28,5.36-2.27-2-1.54-4.75,0-5.36,2.27"/><path class="cls-4" d="M159.41,79.09a14.68,14.68,0,0,0,4.34-3.6,3.92,3.92,0,0,1-4.34,3.6"/><path class="cls-4" d="M187.14,72.39a18.71,18.71,0,0,0,1.67,1c.64.4,2.89,1.25.62,1.12a2.41,2.41,0,0,1-2.29-2.07"/><path class="cls-8" d="M161.94,78c4.63,4.88,20.8,4.69,26.89-4.1C183.67,88.39,172.22,93,161.94,78"/><path class="cls-4" d="M175.2,87.67c-3.52,0-8.42-1.85-13.64-9.46a.46.46,0,0,1,.71-.57c2.1,2.22,6.79,3.39,11.94,3,6.2-.47,11.52-3.1,14.25-7a.45.45,0,0,1,.8.41c-2.82,7.94-7.47,12.89-12.77,13.58a10.38,10.38,0,0,1-1.29.08M164,80c4,5,8.23,7.28,12.39,6.73,4.36-.57,8.29-4.33,11-10.44-3.1,3-7.73,4.89-13.11,5.3A20.41,20.41,0,0,1,164,80"/><path class="cls-5" d="M161,75.81c.35,1.93-2.73,4.09-6.87,4.82s-7.77-.22-8.11-2.15,2.73-4.08,6.87-4.82,7.77.23,8.11,2.15"/><path class="cls-5" d="M188.57,71.45c0,1.82,2.88,3.31,6.44,3.31s6.44-1.49,6.44-3.31-2.89-3.31-6.44-3.31-6.44,1.48-6.44,3.31"/><path class="cls-4" d="M136.34,75.12c-3.61-.14-5.48-6.42-3-8.89,1.55-1.3,3.3.53,3.77,2a6.31,6.31,0,0,1,.43,2c-.65-1.25-1.46-3-2.92-3.3-.74.08-.91.91-1.05,1.66-.23,2.39.38,5.38,2.81,6.53"/><path class="cls-4" d="M210.16,65.58c2.09-1,2.62-3.54,2.42-5.62-.12-.65-.27-1.37-.9-1.43-1.27.25-2,1.75-2.52,2.84a5.43,5.43,0,0,1,.37-1.76c.4-1.23,1.91-2.79,3.25-1.68,2.08,2.12.51,7.51-2.62,7.65"/><g class="cls-9"><g class="cls-10"><g class="cls-11"><rect class="cls-12" x="68.88" y="75.98" width="290.83" height="155.24"/></g></g></g><g class="cls-13"><rect class="cls-14" x="68.88" y="70.01" width="291.18" height="155.24"/></g><path class="cls-8" d="M187.47,174.55v-3.49h-13.9v41.8h13.9V191.8a15,15,0,0,1,14.32-10.48V170.26a25.84,25.84,0,0,0-14.32,4.29m42.11-39.32a10.61,10.61,0,0,1-5-1.25l14.76-13.91,10.88-10.26a29.12,29.12,0,0,0-18-13.41h-.05a29,29,0,0,0-3.14-.58l-.25,0a27.11,27.11,0,0,0-3.51-.22,29,29,0,1,0,23.5,45.87L238.1,131a10.68,10.68,0,0,1-8.52,4.23m1.57-21.3.15,0,.29,0,.28.06c.3.07.6.15.89.24l.43.14h0l-13.87,13.08a10.71,10.71,0,0,1,10.27-13.71,9,9,0,0,1,1.17.07l.4.05m84.26,74.13c-.3-.2-.62-.38-1-.57a11.37,11.37,0,0,0-2.82-1.09,12.81,12.81,0,0,1-5-2.28h0a2.43,2.43,0,0,1-1.15-2.17c.33-1.82,4.2-2.63,8.65-1.83a19.51,19.51,0,0,1,2.61.66l4.77-12.3s-26.31-5.49-29.31,11.07c-1.26,6.95,2.29,11.54,6.81,14.53.3.2.63.39,1,.58a11.66,11.66,0,0,0,2.83,1.08,12.84,12.84,0,0,1,5,2.28h0a2.46,2.46,0,0,1,1.15,2.18c-.33,1.81-4.2,2.63-8.65,1.82a18.1,18.1,0,0,1-2.61-.66l-4.78,12.3s26.32,5.49,29.32-11.06c1.26-6.95-2.28-11.55-6.81-14.54m31.11,13.6V183.83l4.1-.19v-2.82l-.9-.26v2.22l-4.1.19v18.69a2.78,2.78,0,0,0,1,2.16c1.65,1.4,5,1.33,6.94,1.16l-2.09,8.59a13.15,13.15,0,0,1-18.77-11.91V183.6l-2.61.12v-9.61l2.61-.12v-7.93l12.93-2.24v9.55l4.1-.19v3.3l.9.18v-4.42l-4.1.19v-9.67l-14.73,2.55v7.83l-2.6.12v11.4l2.6-.13v17.13a14.07,14.07,0,0,0,14.07,14.06,13.93,13.93,0,0,0,6.37-1.53l2.5-10.25s-8.21,1.3-8.21-2.28m-74.07-1.27a7.87,7.87,0,0,1-3.73-.93l11-10.36,8.11-7.63A21.56,21.56,0,1,0,286.74,205l-7.94-7.77a8,8,0,0,1-6.35,3.15m-8-8a8,8,0,0,1,10.65-7.51l-10.33,9.75a7.93,7.93,0,0,1-.32-2.24m-35.61-21.51-3.73,23.79-3.75-23.79H205.58l10.2,44h18.73l10.2-44Zm-52.83-70V96.15H157v57.33h19.07V124.59a20.61,20.61,0,0,1,19.65-14.38V95.05a35.65,35.65,0,0,0-19.65,5.87m-22,6.83-20.16,1.07-14.83.78v11.59l13.82.9a14.15,14.15,0,1,1-4.48-19.6l13.42-16.93A39,39,0,0,0,80.89,96.68l.77.48a38.12,38.12,0,0,1,59-11.49L128.2,101.33a15.05,15.05,0,1,0,5.46,21.25l.81-1.28-14.5-1v-9.89l33.34-1.78a38.59,38.59,0,0,1,.44,5.78,38.13,38.13,0,1,1-73.9-13.18l-.79-.46a39,39,0,1,0,75,6.93m129.42,27.48a10.58,10.58,0,0,1-5-1.25l14.75-13.91,10.88-10.26a29,29,0,0,0-24.78-14.25h-.16a29,29,0,1,0,23.5,45.87L292,131a10.66,10.66,0,0,1-8.51,4.23m1.62-21.29.48.08a9.9,9.9,0,0,1,1.07.28l.43.14h0l-13.88,13.08a10.71,10.71,0,0,1,10.28-13.71,8.92,8.92,0,0,1,1.16.07,3.4,3.4,0,0,1,.46.06m-137,53.11a17.4,17.4,0,0,0-13.38,6.25v8.51a11.44,11.44,0,0,1,18.49,3.66,15.41,15.41,0,1,0-1.47,27.39v1.34h13.81V184.5a17.45,17.45,0,0,0-17.45-17.45m3.64,28v7.1A5.58,5.58,0,0,1,148,203.5a5,5,0,1,1,0-9.87,5.63,5.63,0,0,1,3.73,1.38m-42.81-38.82v24.23H98.49V156.19H83.25v20.43l.89-.14V157.09H97.59v24.23h12.22V157.09h13.45v56.57H109.81V192.82H97.59v20.84H84.14V181.23l-.89.11v33.21H98.49V193.71h10.42v20.84h15.24V156.19Z"/><path class="cls-15" d="M233.49,113.59a11.77,11.77,0,0,0-3.91-.67,11.61,11.61,0,0,0-11.6,11.6,11.89,11.89,0,0,0,.46,3.26l.42,1.39,16-15.08Zm-3.91,1.12a10.13,10.13,0,0,1,1.83.17l-11.56,10.9a10.66,10.66,0,0,1-.08-1.26,9.82,9.82,0,0,1,9.81-9.81m57.81-1.12a11.76,11.76,0,0,0-3.9-.67,11.59,11.59,0,0,0-11.14,14.86l.41,1.4,16-15.09Zm-3.9,1.12a10.3,10.3,0,0,1,1.83.17l-11.57,10.9a10.66,10.66,0,0,1-.08-1.26,9.83,9.83,0,0,1,9.82-9.81M155,107.59l-.13-.78-36.64,1.94V122l13.06.86a13.26,13.26,0,1,1-3.3-19.63l.68.43,14.44-18.22-.62-.56a39.88,39.88,0,0,0-53.88.25,40,40,0,0,0-8.43,11.06l.76.47.77.48a38.12,38.12,0,0,1,59-11.49L128.2,101.33a15.05,15.05,0,1,0,5.46,21.25l.81-1.28-14.5-1v-9.89l33.34-1.78a38.59,38.59,0,0,1,.44,5.78,38.13,38.13,0,1,1-73.9-13.18l-.79-.46-.78-.45a39.91,39.91,0,1,0,77.26,14.09,40.5,40.5,0,0,0-.59-6.87M195.7,94.15a36.49,36.49,0,0,0-13.36,2.52A35.38,35.38,0,0,0,177,99.31V95.25H156.09v59.12H177V124.73a19.63,19.63,0,0,1,18.75-13.62h.89v-17Zm-.9,15.19a21.39,21.39,0,0,0-19.6,15l0,.13v28.13H157.88V97h17.28v5.54l1.39-.91A34.76,34.76,0,0,1,194.8,96Zm38.69,4.25a11.77,11.77,0,0,0-3.91-.67,11.61,11.61,0,0,0-11.6,11.6,11.89,11.89,0,0,0,.46,3.26l.42,1.39,16-15.08Zm-3.91,1.12a10.13,10.13,0,0,1,1.83.17l-11.56,10.9a10.66,10.66,0,0,1-.08-1.26,9.82,9.82,0,0,1,9.81-9.81m3.91-1.12a11.77,11.77,0,0,0-3.91-.67,11.61,11.61,0,0,0-11.6,11.6,11.89,11.89,0,0,0,.46,3.26l.42,1.39,16-15.08Zm-3.91,1.12a10.13,10.13,0,0,1,1.83.17l-11.56,10.9a10.66,10.66,0,0,1-.08-1.26,9.82,9.82,0,0,1,9.81-9.81m3.91-1.12a11.77,11.77,0,0,0-3.91-.67,11.61,11.61,0,0,0-11.6,11.6,11.89,11.89,0,0,0,.46,3.26l.42,1.39,16-15.08Zm-3.91,1.12a10.13,10.13,0,0,1,1.83.17l-11.56,10.9a10.66,10.66,0,0,1-.08-1.26,9.82,9.82,0,0,1,9.81-9.81m3.91-1.12a11.77,11.77,0,0,0-3.91-.67,11.61,11.61,0,0,0-11.6,11.6,11.89,11.89,0,0,0,.46,3.26l.42,1.39,16-15.08Zm-3.91,1.12a10.13,10.13,0,0,1,1.83.17l-11.56,10.9a10.66,10.66,0,0,1-.08-1.26,9.82,9.82,0,0,1,9.81-9.81m3.91-1.12a11.77,11.77,0,0,0-3.91-.67,11.61,11.61,0,0,0-11.6,11.6,11.89,11.89,0,0,0,.46,3.26l.42,1.39,16-15.08Zm-3.91,1.12a10.13,10.13,0,0,1,1.83.17l-11.56,10.9a10.66,10.66,0,0,1-.08-1.26,9.82,9.82,0,0,1,9.81-9.81m3.91-1.12a11.77,11.77,0,0,0-3.91-.67,11.61,11.61,0,0,0-11.6,11.6,11.89,11.89,0,0,0,.46,3.26l.42,1.39,16-15.08Zm-3.91,1.12a10.13,10.13,0,0,1,1.83.17l-11.56,10.9a10.66,10.66,0,0,1-.08-1.26,9.82,9.82,0,0,1,9.81-9.81m3.91-1.12a11.77,11.77,0,0,0-3.91-.67,11.61,11.61,0,0,0-11.6,11.6,11.89,11.89,0,0,0,.46,3.26l.42,1.39,16-15.08Zm-3.91,1.12a10.13,10.13,0,0,1,1.83.17l-11.56,10.9a10.66,10.66,0,0,1-.08-1.26,9.82,9.82,0,0,1,9.81-9.81m7.81,15.75a9.74,9.74,0,0,1-7.81,3.87,9.91,9.91,0,0,1-3.43-.61L251.33,110l-.36-.61a30,30,0,0,0-5.38-6.7c-.47-.42-.94-.84-1.42-1.24A29.85,29.85,0,1,0,249.49,142l.44-.63L238,129.66Zm10.19,11.07A28.07,28.07,0,1,1,244.36,104a27.71,27.71,0,0,1,4.69,5.67l-26,24.54,1.11.59a11.63,11.63,0,0,0,14-2.46Zm-14.09-27.94a11.77,11.77,0,0,0-3.91-.67,11.61,11.61,0,0,0-11.6,11.6,11.89,11.89,0,0,0,.46,3.26l.42,1.39,16-15.08Zm-3.91,1.12a10.13,10.13,0,0,1,1.83.17l-11.56,10.9a10.66,10.66,0,0,1-.08-1.26,9.82,9.82,0,0,1,9.81-9.81m3.91-1.12a11.77,11.77,0,0,0-3.91-.67,11.61,11.61,0,0,0-11.6,11.6,11.89,11.89,0,0,0,.46,3.26l.42,1.39,16-15.08Zm-3.91,1.12a10.13,10.13,0,0,1,1.83.17l-11.56,10.9a10.66,10.66,0,0,1-.08-1.26,9.82,9.82,0,0,1,9.81-9.81m3.91-1.12a11.77,11.77,0,0,0-3.91-.67,11.61,11.61,0,0,0-11.6,11.6,11.89,11.89,0,0,0,.46,3.26l.42,1.39,16-15.08Zm-3.91,1.12a10.13,10.13,0,0,1,1.83.17l-11.56,10.9a10.66,10.66,0,0,1-.08-1.26,9.82,9.82,0,0,1,9.81-9.81m3.91-1.12a11.77,11.77,0,0,0-3.91-.67,11.61,11.61,0,0,0-11.6,11.6,11.89,11.89,0,0,0,.46,3.26l.42,1.39,16-15.08Zm-3.91,1.12a10.13,10.13,0,0,1,1.83.17l-11.56,10.9a10.66,10.66,0,0,1-.08-1.26,9.82,9.82,0,0,1,9.81-9.81m3.91-1.12a11.77,11.77,0,0,0-3.91-.67,11.61,11.61,0,0,0-11.6,11.6,11.89,11.89,0,0,0,.46,3.26l.42,1.39,16-15.08Zm-3.91,1.12a10.13,10.13,0,0,1,1.83.17l-11.56,10.9a10.66,10.66,0,0,1-.08-1.26,9.82,9.82,0,0,1,9.81-9.81m3.91-1.12a11.77,11.77,0,0,0-3.91-.67,11.61,11.61,0,0,0-11.6,11.6,11.89,11.89,0,0,0,.46,3.26l.42,1.39,16-15.08Zm-3.91,1.12a10.13,10.13,0,0,1,1.83.17l-11.56,10.9a10.66,10.66,0,0,1-.08-1.26,9.82,9.82,0,0,1,9.81-9.81m3.91-1.12a11.77,11.77,0,0,0-3.91-.67,11.61,11.61,0,0,0-11.6,11.6,11.89,11.89,0,0,0,.46,3.26l.42,1.39,16-15.08Zm-3.91,1.12a10.13,10.13,0,0,1,1.83.17l-11.56,10.9a10.66,10.66,0,0,1-.08-1.26,9.82,9.82,0,0,1,9.81-9.81m57.81-1.12a11.76,11.76,0,0,0-3.9-.67,11.59,11.59,0,0,0-11.14,14.86l.41,1.4,16-15.09Zm-3.9,1.12a10.3,10.3,0,0,1,1.83.17l-11.57,10.9a10.66,10.66,0,0,1-.08-1.26,9.83,9.83,0,0,1,9.82-9.81m3.9-1.12a11.76,11.76,0,0,0-3.9-.67,11.59,11.59,0,0,0-11.14,14.86l.41,1.4,16-15.09Zm-3.9,1.12a10.3,10.3,0,0,1,1.83.17l-11.57,10.9a10.66,10.66,0,0,1-.08-1.26,9.83,9.83,0,0,1,9.82-9.81m3.9-1.12a11.76,11.76,0,0,0-3.9-.67,11.59,11.59,0,0,0-11.14,14.86l.41,1.4,16-15.09Zm-3.9,1.12a10.3,10.3,0,0,1,1.83.17l-11.57,10.9a10.66,10.66,0,0,1-.08-1.26,9.83,9.83,0,0,1,9.82-9.81m3.9-1.12a11.76,11.76,0,0,0-3.9-.67,11.59,11.59,0,0,0-11.14,14.86l.41,1.4,16-15.09Zm-3.9,1.12a10.3,10.3,0,0,1,1.83.17l-11.57,10.9a10.66,10.66,0,0,1-.08-1.26,9.83,9.83,0,0,1,9.82-9.81m3.9-1.12a11.76,11.76,0,0,0-3.9-.67,11.59,11.59,0,0,0-11.14,14.86l.41,1.4,16-15.09Zm-3.9,1.12a10.3,10.3,0,0,1,1.83.17l-11.57,10.9a10.66,10.66,0,0,1-.08-1.26,9.83,9.83,0,0,1,9.82-9.81m3.9-1.12a11.76,11.76,0,0,0-3.9-.67,11.59,11.59,0,0,0-11.14,14.86l.41,1.4,16-15.09Zm-3.9,1.12a10.3,10.3,0,0,1,1.83.17l-11.57,10.9a10.66,10.66,0,0,1-.08-1.26,9.83,9.83,0,0,1,9.82-9.81m3.9-1.12a11.76,11.76,0,0,0-3.9-.67,11.59,11.59,0,0,0-11.14,14.86l.41,1.4,16-15.09Zm-3.9,1.12a10.3,10.3,0,0,1,1.83.17l-11.57,10.9a10.66,10.66,0,0,1-.08-1.26,9.83,9.83,0,0,1,9.82-9.81m7.8,15.75a9.73,9.73,0,0,1-7.8,3.87,9.93,9.93,0,0,1-3.44-.61L305.24,110l-.37-.61a29.5,29.5,0,0,0-5.38-6.7,31.34,31.34,0,0,0-3.75-3A29.85,29.85,0,1,0,303.39,142l.45-.63L291.9,129.66Zm10.19,11.07A28,28,0,1,1,303,109.65l-26,24.54,1.1.59a11.62,11.62,0,0,0,5.44,1.34,11.49,11.49,0,0,0,8.58-3.8Zm-14.09-27.94a11.76,11.76,0,0,0-3.9-.67,11.59,11.59,0,0,0-11.14,14.86l.41,1.4,16-15.09Zm-3.9,1.12a10.3,10.3,0,0,1,1.83.17l-11.57,10.9a10.66,10.66,0,0,1-.08-1.26,9.83,9.83,0,0,1,9.82-9.81m3.9-1.12a11.76,11.76,0,0,0-3.9-.67,11.59,11.59,0,0,0-11.14,14.86l.41,1.4,16-15.09Zm-3.9,1.12a10.3,10.3,0,0,1,1.83.17l-11.57,10.9a10.66,10.66,0,0,1-.08-1.26,9.83,9.83,0,0,1,9.82-9.81m3.9-1.12a11.76,11.76,0,0,0-3.9-.67,11.59,11.59,0,0,0-11.14,14.86l.41,1.4,16-15.09Zm-3.9,1.12a10.3,10.3,0,0,1,1.83.17l-11.57,10.9a10.66,10.66,0,0,1-.08-1.26,9.83,9.83,0,0,1,9.82-9.81m3.9-1.12a11.76,11.76,0,0,0-3.9-.67,11.59,11.59,0,0,0-11.14,14.86l.41,1.4,16-15.09Zm-3.9,1.12a10.3,10.3,0,0,1,1.83.17l-11.57,10.9a10.66,10.66,0,0,1-.08-1.26,9.83,9.83,0,0,1,9.82-9.81m3.9-1.12a11.76,11.76,0,0,0-3.9-.67,11.59,11.59,0,0,0-11.14,14.86l.41,1.4,16-15.09Zm-3.9,1.12a10.3,10.3,0,0,1,1.83.17l-11.57,10.9a10.66,10.66,0,0,1-.08-1.26,9.83,9.83,0,0,1,9.82-9.81m3.9-1.12a11.76,11.76,0,0,0-3.9-.67,11.59,11.59,0,0,0-11.14,14.86l.41,1.4,16-15.09Zm-3.9,1.12a10.3,10.3,0,0,1,1.83.17l-11.57,10.9a10.66,10.66,0,0,1-.08-1.26,9.83,9.83,0,0,1,9.82-9.81m3.9-1.12a11.76,11.76,0,0,0-3.9-.67,11.59,11.59,0,0,0-11.14,14.86l.41,1.4,16-15.09Zm-3.9,1.12a10.3,10.3,0,0,1,1.83.17l-11.57,10.9a10.66,10.66,0,0,1-.08-1.26,9.83,9.83,0,0,1,9.82-9.81m71.36-9.21a13.37,13.37,0,0,0-1.2-2.67l-.77.45,0,0h0c.16.29.32.58.47.88l.08.18c.05.09.09.19.13.28s.08.18.11.27a12.66,12.66,0,0,1,.64,2.12c0,.13.05.26.07.4s0,.26.07.4.06.56.08.84c0,.1,0,.21,0,.31s0,.36,0,.54v43.94H334.93V114.42c0-4.78-7.69-3.47-8.88-.61v39.67H306.39V97.2h19.66v5.58a2,2,0,0,1,.21-.29,1,1,0,0,1,.14-.16,8.7,8.7,0,0,1,1.45-1.35l.29-.21c.12-.09.23-.18.36-.26l.41-.25.44-.27.31-.17.22-.12.29-.14c.18-.1.39-.19.6-.28s.67-.29,1-.44l.66-.23h0l.69-.22.53-.15.84-.21.46-.11.41-.08.38-.08.35-.06.3,0,.46-.07.28,0,.41-.06.48,0,.48,0c.65-.07,1.34-.11,2.05-.14h0c.53,0,1.07,0,1.63,0a12.3,12.3,0,0,1,7.89,2.86l.71-.57a13.14,13.14,0,0,0-8.6-3.19,34.49,34.49,0,0,0-7.68.79,18.19,18.19,0,0,0-7.63,3.46V96.3H305.5v58.07h21.44V114c.68-1.24,3.31-2.16,5.2-1.78a2.06,2.06,0,0,1,1.9,2.19v40h21.45V109.54a13.19,13.19,0,0,0-.64-4m-79.41,78.57a8.86,8.86,0,0,0-11.85,8.35,8.72,8.72,0,0,0,.36,2.49l.41,1.4,12.46-11.75Zm-10.05,8.8c0-.15,0-.3,0-.45a7.08,7.08,0,0,1,7.07-7.08,8.14,8.14,0,0,1,.87,0Zm-113.07,1.48a6.54,6.54,0,0,0-4.33-1.61,5.84,5.84,0,1,0,0,11.65,6.54,6.54,0,0,0,4.33-1.61l.3-.26v-7.91Zm-1.49,7.34a4.79,4.79,0,0,1-2.84.91,4.06,4.06,0,1,1,0-8.07,4.79,4.79,0,0,1,2.84.91Zm51-32.33a26.78,26.78,0,0,0-13.42,3.58v-2.77h-15.7v43.59h15.7V191.94a14.06,14.06,0,0,1,13.42-9.73h.9V169.36Zm-.89,11.09a15.83,15.83,0,0,0-14.28,11.08l0,.13V212H174.46V172h12.12v4.25l1.38-.92a25,25,0,0,1,12.94-4.12Zm74.54,3.62a8.86,8.86,0,0,0-11.85,8.35,8.72,8.72,0,0,0,.36,2.49l.41,1.4,12.46-11.75Zm-10.05,8.8c0-.15,0-.3,0-.45a7.08,7.08,0,0,1,7.07-7.08,8.14,8.14,0,0,1,.87,0Zm10.05-8.8a8.86,8.86,0,0,0-11.85,8.35,8.72,8.72,0,0,0,.36,2.49l.41,1.4,12.46-11.75Zm-10.05,8.8c0-.15,0-.3,0-.45a7.08,7.08,0,0,1,7.07-7.08,8.14,8.14,0,0,1,.87,0Zm10.05-8.8a8.86,8.86,0,0,0-11.85,8.35,8.72,8.72,0,0,0,.36,2.49l.41,1.4,12.46-11.75Zm-10.05,8.8c0-.15,0-.3,0-.45a7.08,7.08,0,0,1,7.07-7.08,8.14,8.14,0,0,1,.87,0Zm10.05-8.8a8.86,8.86,0,0,0-11.85,8.35,8.72,8.72,0,0,0,.36,2.49l.41,1.4,12.46-11.75Zm-10.05,8.8c0-.15,0-.3,0-.45a7.08,7.08,0,0,1,7.07-7.08,8.14,8.14,0,0,1,.87,0Zm10.05-8.8a8.86,8.86,0,0,0-11.85,8.35,8.72,8.72,0,0,0,.36,2.49l.41,1.4,12.46-11.75Zm-10.05,8.8c0-.15,0-.3,0-.45a7.08,7.08,0,0,1,7.07-7.08,8.14,8.14,0,0,1,.87,0Zm10.05-8.8a8.86,8.86,0,0,0-11.85,8.35,8.72,8.72,0,0,0,.36,2.49l.41,1.4,12.46-11.75Zm-10.05,8.8c0-.15,0-.3,0-.45a7.08,7.08,0,0,1,7.07-7.08,8.14,8.14,0,0,1,.87,0Zm10.05-8.8a8.86,8.86,0,0,0-11.85,8.35,8.72,8.72,0,0,0,.36,2.49l.41,1.4,12.46-11.75Zm-10.05,8.8c0-.15,0-.3,0-.45a7.08,7.08,0,0,1,7.07-7.08,8.14,8.14,0,0,1,.87,0Zm12.7,3.83a7,7,0,0,1-5.64,2.8,6.86,6.86,0,0,1-2.12-.33l18.61-17.54-.36-.62a22.46,22.46,0,1,0-1.11,24.52l.44-.62-9.21-9Zm7.46,8.4a20.66,20.66,0,1,1,1.11-23.79L267.2,199.67l1.1.58a8.9,8.9,0,0,0,10.56-1.69Zm-10.11-21a8.86,8.86,0,0,0-11.85,8.35,8.72,8.72,0,0,0,.36,2.49l.41,1.4,12.46-11.75Zm-10.05,8.8c0-.15,0-.3,0-.45a7.08,7.08,0,0,1,7.07-7.08,8.14,8.14,0,0,1,.87,0Zm10.05-8.8a8.86,8.86,0,0,0-11.85,8.35,8.72,8.72,0,0,0,.36,2.49l.41,1.4,12.46-11.75Zm-10.05,8.8c0-.15,0-.3,0-.45a7.08,7.08,0,0,1,7.07-7.08,8.14,8.14,0,0,1,.87,0Zm10.05-8.8a8.86,8.86,0,0,0-11.85,8.35,8.72,8.72,0,0,0,.36,2.49l.41,1.4,12.46-11.75Zm-10.05,8.8c0-.15,0-.3,0-.45a7.08,7.08,0,0,1,7.07-7.08,8.14,8.14,0,0,1,.87,0Zm10.05-8.8a8.86,8.86,0,0,0-11.85,8.35,8.72,8.72,0,0,0,.36,2.49l.41,1.4,12.46-11.75Zm-10.05,8.8c0-.15,0-.3,0-.45a7.08,7.08,0,0,1,7.07-7.08,8.14,8.14,0,0,1,.87,0Zm10.05-8.8a8.86,8.86,0,0,0-11.85,8.35,8.72,8.72,0,0,0,.36,2.49l.41,1.4,12.46-11.75Zm-10.05,8.8c0-.15,0-.3,0-.45a7.08,7.08,0,0,1,7.07-7.08,8.14,8.14,0,0,1,.87,0Zm10.05-8.8a8.86,8.86,0,0,0-11.85,8.35,8.72,8.72,0,0,0,.36,2.49l.41,1.4,12.46-11.75Zm-10.05,8.8c0-.15,0-.3,0-.45a7.08,7.08,0,0,1,7.07-7.08,8.14,8.14,0,0,1,.87,0Zm10.05-8.8a8.86,8.86,0,0,0-11.85,8.35,8.72,8.72,0,0,0,.36,2.49l.41,1.4,12.46-11.75Zm-10.05,8.8c0-.15,0-.3,0-.45a7.08,7.08,0,0,1,7.07-7.08,8.14,8.14,0,0,1,.87,0Zm-113.07,1.48a6.54,6.54,0,0,0-4.33-1.61,5.84,5.84,0,1,0,0,11.65,6.54,6.54,0,0,0,4.33-1.61l.3-.26v-7.91Zm-1.49,7.34a4.79,4.79,0,0,1-2.84.91,4.06,4.06,0,1,1,0-8.07,4.79,4.79,0,0,1,2.84.91Zm1.49-7.34a6.54,6.54,0,0,0-4.33-1.61,5.84,5.84,0,1,0,0,11.65,6.54,6.54,0,0,0,4.33-1.61l.3-.26v-7.91Zm-1.49,7.34a4.79,4.79,0,0,1-2.84.91,4.06,4.06,0,1,1,0-8.07,4.79,4.79,0,0,1,2.84.91Zm1.49-7.34a6.54,6.54,0,0,0-4.33-1.61,5.84,5.84,0,1,0,0,11.65,6.54,6.54,0,0,0,4.33-1.61l.3-.26v-7.91Zm-1.49,7.34a4.79,4.79,0,0,1-2.84.91,4.06,4.06,0,1,1,0-8.07,4.79,4.79,0,0,1,2.84.91Zm1.49-7.34a6.54,6.54,0,0,0-4.33-1.61,5.84,5.84,0,1,0,0,11.65,6.54,6.54,0,0,0,4.33-1.61l.3-.26v-7.91Zm-1.49,7.34a4.79,4.79,0,0,1-2.84.91,4.06,4.06,0,1,1,0-8.07,4.79,4.79,0,0,1,2.84.91Zm1.49-7.34a6.54,6.54,0,0,0-4.33-1.61,5.84,5.84,0,1,0,0,11.65,6.54,6.54,0,0,0,4.33-1.61l.3-.26v-7.91Zm-1.49,7.34a4.79,4.79,0,0,1-2.84.91,4.06,4.06,0,1,1,0-8.07,4.79,4.79,0,0,1,2.84.91Zm1.49-7.34a6.54,6.54,0,0,0-4.33-1.61,5.84,5.84,0,1,0,0,11.65,6.54,6.54,0,0,0,4.33-1.61l.3-.26v-7.91Zm-1.49,7.34a4.79,4.79,0,0,1-2.84.91,4.06,4.06,0,1,1,0-8.07,4.79,4.79,0,0,1,2.84.91Zm1.49-7.34a6.54,6.54,0,0,0-4.33-1.61,5.84,5.84,0,1,0,0,11.65,6.54,6.54,0,0,0,4.33-1.61l.3-.26v-7.91Zm-1.49,7.34a4.79,4.79,0,0,1-2.84.91,4.06,4.06,0,1,1,0-8.07,4.79,4.79,0,0,1,2.84.91Zm-2.75-35.54A18.32,18.32,0,0,0,134,172.72l-.2.25v11l1.51-1.48a10.54,10.54,0,0,1,15.63,1,16.31,16.31,0,1,0-5.52,31.66,16.17,16.17,0,0,0,5.4-.92v.92h15.6V184.5a18.37,18.37,0,0,0-18.35-18.35m16.56,47.16h-12v-1.83l-1.26.56a14.52,14.52,0,1,1,1.38-25.8l2.35,1.38-1.08-2.5a12.34,12.34,0,0,0-18.42-5.22v-6.27a16.56,16.56,0,0,1,29,10.87ZM148,192.74a5.84,5.84,0,1,0,0,11.65,6.54,6.54,0,0,0,4.33-1.61l.3-.26v-7.91l-.3-.26a6.54,6.54,0,0,0-4.33-1.61m2.84,8.95a4.79,4.79,0,0,1-2.84.91,4.06,4.06,0,1,1,0-8.07,4.79,4.79,0,0,1,2.84.91Zm1.49-7.34a6.54,6.54,0,0,0-4.33-1.61,5.84,5.84,0,1,0,0,11.65,6.54,6.54,0,0,0,4.33-1.61l.3-.26v-7.91Zm-1.49,7.34a4.79,4.79,0,0,1-2.84.91,4.06,4.06,0,1,1,0-8.07,4.79,4.79,0,0,1,2.84.91Zm1.49-7.34a6.54,6.54,0,0,0-4.33-1.61,5.84,5.84,0,1,0,0,11.65,6.54,6.54,0,0,0,4.33-1.61l.3-.26v-7.91Zm-1.49,7.34a4.79,4.79,0,0,1-2.84.91,4.06,4.06,0,1,1,0-8.07,4.79,4.79,0,0,1,2.84.91Zm1.49-7.34a6.54,6.54,0,0,0-4.33-1.61,5.84,5.84,0,1,0,0,11.65,6.54,6.54,0,0,0,4.33-1.61l.3-.26v-7.91Zm-1.49,7.34a4.79,4.79,0,0,1-2.84.91,4.06,4.06,0,1,1,0-8.07,4.79,4.79,0,0,1,2.84.91Zm1.49-7.34a6.54,6.54,0,0,0-4.33-1.61,5.84,5.84,0,1,0,0,11.65,6.54,6.54,0,0,0,4.33-1.61l.3-.26v-7.91Zm-1.49,7.34a4.79,4.79,0,0,1-2.84.91,4.06,4.06,0,1,1,0-8.07,4.79,4.79,0,0,1,2.84.91Zm1.49-7.34a6.54,6.54,0,0,0-4.33-1.61,5.84,5.84,0,1,0,0,11.65,6.54,6.54,0,0,0,4.33-1.61l.3-.26v-7.91Zm-1.49,7.34a4.79,4.79,0,0,1-2.84.91,4.06,4.06,0,1,1,0-8.07,4.79,4.79,0,0,1,2.84.91Zm1.49-7.34a6.54,6.54,0,0,0-4.33-1.61,5.84,5.84,0,1,0,0,11.65,6.54,6.54,0,0,0,4.33-1.61l.3-.26v-7.91Zm-1.49,7.34a4.79,4.79,0,0,1-2.84.91,4.06,4.06,0,1,1,0-8.07,4.79,4.79,0,0,1,2.84.91Zm165.08-14.38c-.29-.19-.63-.39-1-.61a12.56,12.56,0,0,0-3-1.16,12.17,12.17,0,0,1-4.64-2.1l-.11-.09c-.52-.46-.8-.92-.74-1.24.18-1,3.23-1.9,7.61-1.11a19.29,19.29,0,0,1,2.49.63l.8.27,5.47-14.08-1-.22c-.64-.13-15.74-3.19-24.55,2.75a13.36,13.36,0,0,0-5.83,9c-1.13,6.25,1.36,11.58,7.2,15.44a11.75,11.75,0,0,0,1,.61,12.41,12.41,0,0,0,3,1.17,12.4,12.4,0,0,1,4.54,2l.14.21.13,0c.48.44.72.87.67,1.18-.17,1-3.23,1.9-7.61,1.1a17.78,17.78,0,0,1-2.49-.63l-.8-.27-5.47,14.09,1,.21a51.57,51.57,0,0,0,9.59.9c4.88,0,10.67-.75,15-3.65a13.34,13.34,0,0,0,5.83-9,15.87,15.87,0,0,0,.26-2.87c0-5-2.53-9.33-7.45-12.58m5.43,15.13a11.6,11.6,0,0,1-5.06,7.86c-6.92,4.67-18.6,3.24-22.15,2.67l4.09-10.51a16.6,16.6,0,0,0,1.91.44c4.45.81,9.2.19,9.7-2.54a3.15,3.15,0,0,0-1.38-3l-.14-.21-.14,0a14.21,14.21,0,0,0-5.16-2.3,11.26,11.26,0,0,1-2.61-1c-.36-.2-.66-.38-.91-.55-5.26-3.47-7.42-8.06-6.42-13.62a11.65,11.65,0,0,1,5.06-7.87c6.92-4.67,18.61-3.24,22.14-2.67l-4.08,10.51c-.62-.17-1.25-.32-1.91-.44-4.44-.8-9.2-.19-9.69,2.54-.13.72,0,1.83,1.45,3l.19.15h0a14.19,14.19,0,0,0,5.17,2.31,11.08,11.08,0,0,1,2.62,1c.36.2.65.38.9.54,5.26,3.48,7.42,8.06,6.42,13.63M108,155.3v24.23H99.38V155.3h-17v21.45l.9-.13.89-.14V157.09H97.59v24.23h12.22V157.09h13.45v56.57H109.81V192.82H97.59v20.84H84.14V181.23l-.89.11-.9.12v34h17V194.61H108v20.83h17V155.3ZM228.12,170l-3,18.91-3-18.91H204.45l10.62,45.82h20.15L245.84,170Zm-11.63,44-9.78-42.24h13.93l4.51,28.66,4.5-28.66h13.94l-9.8,42.24Zm138.09-11c-2,.32-5.6.43-6.8-.6a1,1,0,0,1-.37-.79v-17l4.1-.2v-3.4l-1.79-.53v2.22l-4.1.19v18.69a2.78,2.78,0,0,0,1,2.16c1.65,1.4,5,1.33,6.94,1.16l-2.09,8.59a13.15,13.15,0,0,1-18.77-11.91V183.6l-2.61.12v-9.61l2.61-.12v-7.93l12.93-2.24v9.55l4.1-.19v3.3l1.79.37V171.3l-4.1.19v-9.8l-16.51,2.86v7.73l-2.61.12v13.2l2.61-.13v16.19A15,15,0,0,0,352.64,215l.37-.19,2.9-12Z"/><path class="cls-16" d="M273.32,185.39l-7.93,7.48c0-.15,0-.3,0-.45a7.08,7.08,0,0,1,7.07-7.08,8.14,8.14,0,0,1,.87,0"/><path class="cls-16" d="M150.83,195.44v6.25a4.79,4.79,0,0,1-2.84.91,4.06,4.06,0,1,1,0-8.07,4.79,4.79,0,0,1,2.84.91"/><path class="cls-8" d="M353.65,102.83l-.77.45a12.24,12.24,0,0,1,1.71,6.26v43.94H334.93V114.42c0-4.78-7.69-3.47-8.88-.61v39.67H306.39V97.2h19.66v5.58s3.4-5.58,16.2-5.58a12.3,12.3,0,0,1,7.89,2.86l.71-.57,1.26-1a70.94,70.94,0,0,0,.86-22A71.64,71.64,0,0,1,355,98a96.92,96.92,0,0,1,29-3.65,96,96,0,0,0-28.75,7.55Z"/><path class="cls-8" d="M357.11,180.36a71.59,71.59,0,0,1,14,16.52,70.34,70.34,0,0,0-16.31-14.8l-3.27-1-1.79-.53v2.22l-4.1.19v18.69a2.78,2.78,0,0,0,1,2.16c1.65,1.4,5,1.33,6.94,1.16l-2.09,8.59a13.15,13.15,0,0,1-18.77-11.91V183.6l-2.61.12v-9.61l2.61-.12v-7.93l12.93-2.24v9.55l4.1-.19v3.3l1.79.37,3,.61A95.71,95.71,0,0,0,380,162.23a97,97,0,0,1-22.91,18.13"/><path class="cls-8" d="M123.26,157.09v56.57H109.81V192.82H97.59v20.84H84.14V181.23l-.89.11-.9.12-4.84.62a70.49,70.49,0,0,0-16.3,14.8,71.56,71.56,0,0,1,14-16.52,97.19,97.19,0,0,1-22.9-18.13,95.71,95.71,0,0,0,25.53,15.23l4.54-.71.9-.13.89-.14V157.09H97.59v24.23h12.22V157.09Z"/><path class="cls-8" d="M153.75,114.46a38.13,38.13,0,1,1-73.9-13.18l-.79-.46-.78-.45L75,98.5a95.74,95.74,0,0,0-29.64-2.31,96.84,96.84,0,0,1,29.17-1.57A71.56,71.56,0,0,1,72.7,73.06a70.76,70.76,0,0,0,4.76,21.5l2.67,1.65.76.47.77.48a38.12,38.12,0,0,1,59-11.49L128.2,101.33a15.05,15.05,0,1,0,5.46,21.25l.81-1.28-14.5-1v-9.89l33.34-1.78a38.59,38.59,0,0,1,.44,5.78"/><path class="cls-16" d="M287.09,114.44l-13.88,13.08a10.7,10.7,0,0,1,13.88-13.08"/><path class="cls-15" d="M272.76,129.17l-.41-1.4a11.4,11.4,0,0,1-.47-3.25,11.6,11.6,0,0,1,15.51-10.92l1.38.49Zm10.72-14.46a9.83,9.83,0,0,0-9.81,9.81,10.66,10.66,0,0,0,.08,1.26l11.57-10.9a10.24,10.24,0,0,0-1.84-.17"/><path class="cls-16" d="M233.19,114.44l-13.88,13.08a10.27,10.27,0,0,1-.43-3,10.71,10.71,0,0,1,10.7-10.71,10.54,10.54,0,0,1,3.61.63"/><path class="cls-15" d="M218.86,129.17l-.41-1.4a11.4,11.4,0,0,1-.47-3.25,11.6,11.6,0,0,1,15.51-10.92l1.37.49Zm10.72-14.46a9.82,9.82,0,0,0-9.81,9.81,10.66,10.66,0,0,0,.08,1.26l11.56-10.9a10.13,10.13,0,0,0-1.83-.17"/><g class="cls-17"><rect class="cls-14" x="327.95" y="49.49" width="82.77" height="84.14" transform="translate(66.68 322.19) rotate(-51.23)"/></g><g class="cls-18"><rect class="cls-14" x="340.05" y="154.55" width="62.55" height="48.16" transform="translate(156.67 530.36) rotate(-84.3)"/></g><g class="cls-19"><rect class="cls-14" x="36.9" y="147.36" width="48.16" height="62.55" transform="translate(-17.45 6.95) rotate(-5.7)"/></g><g class="cls-20"><rect class="cls-14" x="17.45" y="46.8" width="84.15" height="84.58" transform="translate(-46.77 75.6) rotate(-49.02)"/></g><path class="cls-4" d="M210.33,72.71c8.33-2.28,15.32-5.42,11-11.91-8.53-12.78,5.56-50.64,38.22-49,13.16.67,49.29,17.55,48.11,40.83-.83,16.41-24,19.7,4.89,26.63-3.21,19.24-30,33.14-43.75,13.75l-18.63-1c-14.48,6.74-28.08,7.7-43.9-12.94,6.32-.5,11-1.81,12.3-3.71a9.94,9.94,0,0,1-8.23-2.72"/><path class="cls-7" d="M227.7,92.08s-6-1.27-8.5-6.33c2.57,1.4,8.5,6.33,8.5,6.33"/><path class="cls-7" d="M232,91.61c-9.92-3.52-13.48-9.16-12.06-13.44,0,5,6.24,11.16,12.06,13.44"/><path class="cls-7" d="M233.18,88.78c-6-1.92-7.54-8.08-7.44-12.58,1.19,6,7.44,12.58,7.44,12.58"/><path class="cls-7" d="M278.78,94.57c10-5.74,11.26-10.79,11.26-10.79,2.07,4.23-5.17,10.12-11.26,10.79"/><path class="cls-7" d="M292.11,95.78a37.13,37.13,0,0,0,8.47-13.33,13.63,13.63,0,0,1-8.47,13.33"/><path class="cls-7" d="M302.29,84.81l3.13-4s2.38,11.24-10.83,15.07a12.58,12.58,0,0,0,7.7-11.1"/><path class="cls-6" d="M224.23,44.83C223.86,30,246.71,6.7,258.83,18.5c0,0-11.25,2.26-15.26,5.23,0,0,16.05-4.17,23.26,4.3,0,0-11,.38-16.38,2.43,0,0,12.54-.3,14.93.39L263.7,33.6s-2.37,0-3,.73c0,0,4.92.3,6.76,1.56,0,0-6.62,3-8.07,4.81a9.67,9.67,0,0,1,3.07-.22,60.12,60.12,0,0,1-6.11,1.44,17.22,17.22,0,0,1,4.08.34s-7.89,3.1-14.91.55c0,0,7.3.26,10-1.4,0,0-9.37.33-12.64-2.11,0,0-12.41,2.85-18.68,5.53"/><path class="cls-7" d="M246.88,19.61c-12.13-1.22-26.63,21-11.95,15.37,0,0-4.62,4.4-6.27,8.22,0,0,7-3,9.8-5.1,0,0,6.47,4.66,22.56-1.23-16.44-.09-29.58-6.4-14.14-17.26"/><path class="cls-6" d="M295.86,45.1c-4.18-1.61-7.11-8-13.16-5.21.74,9.3,16.05,22.9,16.05,22.9a10.85,10.85,0,0,0-.21-3.8s.93,2.5,2.25,3.28c0,0,4.1-9,2.54-10.72s-6.46-.1-10.41-6.79a8.52,8.52,0,0,0,2.94.34"/><path class="cls-7" d="M286.94,47.1s-2.74-3.65-2.13-7.13a44.89,44.89,0,0,0,2.13,7.13"/><path class="cls-7" d="M288.72,44.36c-1,3.4,1.71,7.26,1.71,7.26a9.09,9.09,0,0,0,.53-1.74c1.18,4.81,4.19,6.73,4.94,9,1.89-4.19-3.86-7.09-7.18-14.53"/><path class="cls-7" d="M293.14,47.41A15.24,15.24,0,0,1,297,55.69s.49-.41.47-.66a10.47,10.47,0,0,1,2.14,4.83,18.83,18.83,0,0,0-6.5-12.45"/><path class="cls-7" d="M305,58.13s1.27-9.77-5.63-13.35C309,46.29,305,58.13,305,58.13"/><path class="cls-21" d="M285.24,24.24c-11.37,6.17-23.1,5.13-22.81-.55.1-2,3.05-2.39,3.53-5.24s.54-7.39,3.74-7.22,13.15,6.86,15.54,13"/><path class="cls-4" d="M270.32,29.54A12.34,12.34,0,0,1,263.75,28a4.74,4.74,0,0,1-2.4-4.35,4.16,4.16,0,0,1,1.86-3,4,4,0,0,0,1.68-2.4c.07-.4.13-.84.19-1.29.37-2.8.93-7,4.67-6.83,3.58.18,13.95,7.16,16.5,13.7l.35.89-.84.45a33.88,33.88,0,0,1-15.44,4.35m-.77-17.23c-1.41,0-1.88,1.61-2.33,5-.06.47-.13.93-.2,1.36a6,6,0,0,1-2.4,3.68c-.69.6-1.09,1-1.11,1.44a2.56,2.56,0,0,0,1.39,2.41c3.19,2,11,1.61,18.94-2.4-2.85-5.67-11.68-11.32-14.2-11.45h-.09"/><path class="cls-21" d="M285.24,24.24s20.72-5.62,22.45.2c1,3.37-1.49,4.4-1.61,6.67s.38,7.82-2.38,8.78-12.36-7.26-18.46-15.65"/><path class="cls-4" d="M303.25,41c-4.38,0-13.8-9.18-18.88-16.16l-.92-1.27L285,23.2c3.63-1,21.84-5.57,23.77.93a5.9,5.9,0,0,1-.85,5.23,4.08,4.08,0,0,0-.72,1.8c0,.35,0,.78,0,1.27,0,3-.05,7.42-3.08,8.48a2.37,2.37,0,0,1-.81.13M287.07,24.88c6.61,8.61,14.7,14.54,16.27,14s1.62-4.4,1.63-6.46c0-.52,0-1,0-1.36a6,6,0,0,1,1-2.78,3.82,3.82,0,0,0,.63-3.52c-.92-3.11-11.51-1.87-19.58.13"/><path class="cls-4" d="M273.43,16.47a29.1,29.1,0,0,1,10.49,6.4c.44.43.85.88,1.32,1.37a7.65,7.65,0,0,1-3.85-.32c-3.54-1.16-6.93-3.69-8-7.45"/><path class="cls-4" d="M274.08,25.43a7.72,7.72,0,0,1,8.4-2.86,5.56,5.56,0,0,1,2.76,1.67,19,19,0,0,1-2.87.88,20,20,0,0,1-8.29.31"/><path class="cls-4" d="M285.24,24.24c4.89-2.39,13,.18,15,5.42-5.2-1.78-9.94-3.13-15-5.42"/><path class="cls-21" d="M289.28,23.79a3.59,3.59,0,1,1-3.4-3.77,3.59,3.59,0,0,1,3.4,3.77"/><path class="cls-4" d="M285.7,28.27h-.24a4.67,4.67,0,1,1,4.9-4.43h0a4.67,4.67,0,0,1-4.66,4.43m0-7.17a2.45,2.45,0,1,0,.12,0h-.12"/><path class="cls-3" d="M219.45,63.52c1.88,4.28,5.76,6.71,8.69,5.43s3.78-5.79,1.91-10.07-5.76-6.71-8.69-5.43-3.78,5.79-1.91,10.07"/><path class="cls-4" d="M226.51,70.19c-3,0-6.21-2.46-7.89-6.31a11.61,11.61,0,0,1-.91-6.69,5.51,5.51,0,0,1,8.87-3.88,12.33,12.33,0,0,1,5.21,11.9,6,6,0,0,1-3.28,4.58,5.1,5.1,0,0,1-2,.4M223,54a3.32,3.32,0,0,0-1.3.26,4.21,4.21,0,0,0-2.23,3.25,9.83,9.83,0,0,0,.79,5.62c1.64,3.75,5.07,6,7.49,5A4.2,4.2,0,0,0,230,64.87a10.55,10.55,0,0,0-4.38-10A5,5,0,0,0,223,54"/><path class="cls-3" d="M290.73,72.26c-2.37,3.67-2.26,8,.24,9.58s6.46,0,8.84-3.7,2.26-8-.24-9.58-6.47,0-8.84,3.7"/><path class="cls-4" d="M293.17,83.38a4.84,4.84,0,0,1-2.69-.78c-2.93-1.89-3.16-6.75-.51-10.83s7.16-5.87,10.09-4,3.15,6.76.51,10.84a10.82,10.82,0,0,1-4.78,4.18,6.74,6.74,0,0,1-2.62.57m4.21-14.53c-1.95,0-4.32,1.49-5.88,3.91-2.07,3.18-2.08,7,0,8.31a3.82,3.82,0,0,0,3.62.06,9.08,9.08,0,0,0,4-3.49c2.06-3.18,2.08-7,0-8.32a3.14,3.14,0,0,0-1.69-.47"/><path class="cls-3" d="M295.14,67.46a65.58,65.58,0,0,1-3.43,5.94c-2.38,35.17-73,27.23-63.55-9.19a75.47,75.47,0,0,1-1.07-11.64c17.55-12.38,36.06,6.45,52.58-14.23,0,0,3,23.21,15.47,29.12"/><path class="cls-5" d="M276.77,45.13s3.42,22.71,18.37,22.33c-12.49-5.91-15.47-29.12-15.47-29.12-16.52,20.68-35,1.85-52.58,14.23,11.19-3.55,38.49,7.1,49.68-7.44"/><path class="cls-4" d="M261.5,96.94c-10.05,0-20.28-3.2-27-9.06-5-4.32-10.23-11.93-7.24-23.7a78.1,78.1,0,0,1-1-11.59v-.48l.4-.28c8-5.66,16.22-5,24.16-4.4,9.93.78,19.31,1.51,28.23-9.66l1.34-1.68.28,2.14c0,.22,3.06,22.78,14.95,28.4l.85.41-.43.83a67.13,67.13,0,0,1-3.35,5.84C291.89,83,286.41,90.17,277.14,94a41.2,41.2,0,0,1-15.64,2.92M228,53a74.68,74.68,0,0,0,1,11l0,.21-.06.2c-2.86,11,2,18.06,6.63,22.06,9.93,8.64,27.84,11.2,40.77,5.83,8.68-3.6,13.78-10.34,14.36-19l0-.24.13-.2s1.36-2,2.95-5.05c-10.09-5.54-13.8-21.69-14.82-27.4-9.15,10.31-19,9.54-28.49,8.8-7.83-.62-15.22-1.2-22.57,3.79"/><path class="cls-4" d="M243.18,53a6.48,6.48,0,0,0-4.29.66,5.8,5.8,0,0,1-2.38-3.38,4.17,4.17,0,0,0,1.29,4.18,5.16,5.16,0,0,1-3.24-2.78s.29,2.77,2.36,3.8c0,0-1.83.44-3.57-2.45,0,0,.48,3,2.76,3.88,0,0-2.25,1.67-3.93-2.56a4.84,4.84,0,0,0,3.16,4.77,3.72,3.72,0,0,1-3.61-1.25A5.2,5.2,0,0,0,235,61a28.67,28.67,0,0,0-.18,6.33,4.27,4.27,0,0,0-2,.62s6-.4,15.68,3c4.83-9.79-.62-17.22-5.27-17.9"/><path class="cls-8" d="M236.13,67.15a18.86,18.86,0,0,1,4.21.59c-4.29-6.45,1-14.38,6.86-10.38-3.16-5.15-13.07-4.82-11.07,9.79"/><path class="cls-8" d="M245.72,60.88a2.21,2.21,0,1,1-1.44-2.54,2.06,2.06,0,0,1,1.44,2.54"/><path class="cls-4" d="M278.14,59.74a6.48,6.48,0,0,1,4,1.77,5.83,5.83,0,0,0,3.18-2.63A4.16,4.16,0,0,1,283,62.57a5.17,5.17,0,0,0,3.86-1.83s-1,2.59-3.28,3c0,0,1.65.91,4.09-1.41,0,0-1.25,2.74-3.69,3,0,0,1.73,2.21,4.46-1.43a4.82,4.82,0,0,1-4.3,3.77,3.73,3.73,0,0,0,3.82-.25,5.23,5.23,0,0,1-4,2.14h0a28.18,28.18,0,0,1-1.5,6.15,4.28,4.28,0,0,1,1.79,1.12s-5.73-2-15.91-1.26c-2.08-10.71,5.14-16.44,9.8-15.87"/><path class="cls-8" d="M281.22,75.21a18.34,18.34,0,0,0-4.22-.54c5.84-5.09,2.86-14.13-3.87-11.82,4.4-4.14,13.87-1.21,8.09,12.36"/><path class="cls-8" d="M273.63,66.63a2.22,2.22,0,0,0,4.38-.31,2.22,2.22,0,0,0-4.38.31"/><path class="cls-4" d="M259.22,73c-.49-2.29-3.14-4-5.24-2.53,1.54-2.94,6.21-.47,5.24,2.53"/><path class="cls-4" d="M269.6,79.75c-2,.32-3.93-1.68-3.91-3.66a13.48,13.48,0,0,0,3.91,3.66"/><path class="cls-4" d="M245.45,73.73a2.24,2.24,0,0,1-2.8,2.22c1-.89,1.83-1.35,2.8-2.22"/><path class="cls-8" d="M267.37,78.65c-3.73,5.39-17.62,5.85-23.3-3.28,5.17,15.28,15.23,19.68,23.3,3.28"/><path class="cls-4" d="M256.13,89.5h-.46c-4.74-.32-9.11-5.41-12-14a.45.45,0,0,1,.23-.54.43.43,0,0,1,.55.17,15.45,15.45,0,0,0,12.95,6.92c4.22.11,8-1.33,9.62-3.66a.43.43,0,0,1,.58-.13.44.44,0,0,1,.17.57c-4.28,8.71-8.61,10.66-11.63,10.66M245.49,77.91c2.71,6.59,6.37,10.45,10.24,10.7,3.47.24,6.89-2.44,10-7.77a14.41,14.41,0,0,1-8.33,2.1,16.86,16.86,0,0,1-11.88-5"/><path class="cls-4" d="M283.1,60.48C281.45,51,272.05,55,272.65,56.59c1,2.63,5.59-4,10.45,3.89"/><path class="cls-4" d="M239,52.39c5.16-8.17,12.3-.84,11.15.4-1.92,2.05-3.64-5.84-11.15-.4"/><path class="cls-22" d="M270.22,78.85c-.36,1.92,2.7,4.1,6.84,4.87s7.77-.16,8.13-2.09-2.7-4.1-6.84-4.87-7.77.16-8.13,2.09"/><path class="cls-22" d="M243.52,72.84c0,1.82-2.91,3.28-6.47,3.25s-6.43-1.53-6.41-3.36,2.91-3.28,6.46-3.25,6.43,1.53,6.42,3.36"/><path class="cls-4" d="M224.27,64.08c-3.26-.32-4.62-6-2.33-8.13,1.46-1.09,2.94.62,3.3,1.93a5.63,5.63,0,0,1,.29,1.85c-.37-.93-1.7-3.75-2.91-2.93a4.18,4.18,0,0,0-.67,2.94c.12,1.68.66,3.47,2.32,4.34"/><path class="cls-4" d="M295.69,77.92a4.26,4.26,0,0,0,2.36-3.52c.37-2.12-.36-4-2.24-1.63a9.17,9.17,0,0,0-.82,1.32c.16-1.34.81-3.07,2.36-3.31,1.14-.08,1.69,1.17,1.75,2.11.15,2.12-1,5-3.41,5"/></g></g></svg>