<svg id="Layer_1" data-name="Layer 1" xmlns="http://www.w3.org/2000/svg" viewBox="0 0 187.22 75.15"><defs><style>.cls-1{fill:#a4d0ae;}.cls-2{fill:#fff;}</style></defs><title>1</title><path class="cls-1" d="M170.64,75.15H16.58A16.58,16.58,0,0,1,0,58.57v-42A16.58,16.58,0,0,1,16.58,0H170.64a16.58,16.58,0,0,1,16.58,16.58v42a16.59,16.59,0,0,1-16.58,16.58"/><path class="cls-2" d="M27.15,49a2.72,2.72,0,0,1-1.47-.32,1.54,1.54,0,0,1-.63-.86,4.26,4.26,0,0,1-.15-1.15V24.54a3.64,3.64,0,0,1,.15-1.07,1.41,1.41,0,0,1,.67-.8,3.1,3.1,0,0,1,1.58-.31,3.36,3.36,0,0,1,1.58.27,2.24,2.24,0,0,1,.82.8l7.94,16.44V24.54a3.64,3.64,0,0,1,.15-1.07,1.41,1.41,0,0,1,.65-.8A3,3,0,0,1,40,22.36a2.7,2.7,0,0,1,1.51.33,1.45,1.45,0,0,1,.61.85,4.88,4.88,0,0,1,.13,1.19v22a4.06,4.06,0,0,1-.15,1.13,1.51,1.51,0,0,1-.67.84,3.09,3.09,0,0,1-1.58.32,4.68,4.68,0,0,1-1.37-.17,1.46,1.46,0,0,1-.84-.71L29.51,31.71v15a4.06,4.06,0,0,1-.15,1.13,1.52,1.52,0,0,1-.65.84A3,3,0,0,1,27.15,49Zm29.21,0a2.59,2.59,0,0,1-1.53-.44,1.38,1.38,0,0,1-.61-1.16l.08-.42a4.73,4.73,0,0,1-.67.9,3.66,3.66,0,0,1-1.16.8,4.73,4.73,0,0,1-1.87.32,4,4,0,0,1-2.34-.7,5.73,5.73,0,0,1-1.72-2,10.73,10.73,0,0,1-1.07-3,18.38,18.38,0,0,1-.36-3.78,17.47,17.47,0,0,1,.36-3.66,10.55,10.55,0,0,1,1.07-2.93,5.53,5.53,0,0,1,1.74-1.95,4.05,4.05,0,0,1,2.32-.68,5.54,5.54,0,0,1,1.7.24,4.67,4.67,0,0,1,1.26.65,2.48,2.48,0,0,1,.74.9l-.08-.23a2.09,2.09,0,0,1,.65-1.22,2.33,2.33,0,0,1,1.53-.42,2.75,2.75,0,0,1,1.52.32,1.46,1.46,0,0,1,.59.88,5.06,5.06,0,0,1,.14,1.2V46.65a4.71,4.71,0,0,1-.14,1.15,1.39,1.39,0,0,1-.61.84A3,3,0,0,1,56.36,48.94Zm-4.5-4.46a1.64,1.64,0,0,0,1.41-.61,3.38,3.38,0,0,0,.57-1.74A24.25,24.25,0,0,0,54,39.56,21,21,0,0,0,53.82,37a3.64,3.64,0,0,0-.59-1.74,1.67,1.67,0,0,0-1.45-.63,1.51,1.51,0,0,0-1.18.61A4.13,4.13,0,0,0,49.86,37a11.92,11.92,0,0,0-.25,2.61,10.72,10.72,0,0,0,.27,2.57,4.2,4.2,0,0,0,.76,1.7A1.51,1.51,0,0,0,51.86,44.48ZM62.73,30.6l3.09,0,2.89-.16a3.93,3.93,0,0,1,1.17.1,1.37,1.37,0,0,1,.82.63,3.11,3.11,0,0,1,.3,1.56,3.37,3.37,0,0,1-.26,1.49,1.21,1.21,0,0,1-.73.63,3.9,3.9,0,0,1-1.1.13L65.82,35l-3.21,0a1.46,1.46,0,0,1-1.31-.53,3.17,3.17,0,0,1-.36-1.72,2.59,2.59,0,0,1,.43-1.64A1.58,1.58,0,0,1,62.73,30.6ZM68.52,49a7.05,7.05,0,0,1-2.4-.36,4.11,4.11,0,0,1-1.64-1.09,4.45,4.45,0,0,1-1-1.79,8.85,8.85,0,0,1-.31-2.48V26.18A4.57,4.57,0,0,1,63.36,25a1.28,1.28,0,0,1,.59-.78,3,3,0,0,1,1.52-.28,3,3,0,0,1,1.55.3,1.35,1.35,0,0,1,.61.82,4.44,4.44,0,0,1,.13,1.13V43a6,6,0,0,0,0,.81,1.46,1.46,0,0,0,.15.51.7.7,0,0,0,.29.3.89.89,0,0,0,.47.1,4,4,0,0,1,1,.11,1.16,1.16,0,0,1,.68.56,2.84,2.84,0,0,1,.27,1.43,3,3,0,0,1-.3,1.54,1.26,1.26,0,0,1-.8.59A4.34,4.34,0,0,1,68.52,49Zm9.8,0A5,5,0,0,1,76,48.5a3.75,3.75,0,0,1-1.55-1.41,7.16,7.16,0,0,1-.88-2.29,15.38,15.38,0,0,1-.28-3.14V32.47a4.49,4.49,0,0,1,.13-1.13,1.38,1.38,0,0,1,.61-.82,2.92,2.92,0,0,1,1.51-.3,2.87,2.87,0,0,1,1.54.32,1.53,1.53,0,0,1,.63.84,4,4,0,0,1,.15,1.13V41.7a6.41,6.41,0,0,0,.16,1.58,1.77,1.77,0,0,0,.51.95,1.39,1.39,0,0,0,1,.33,1.94,1.94,0,0,0,1.11-.29,1.74,1.74,0,0,0,.63-.8,3,3,0,0,0,.21-1.13V32.47a4.06,4.06,0,0,1,.15-1.13,1.45,1.45,0,0,1,.63-.82,2.92,2.92,0,0,1,1.51-.3,2.79,2.79,0,0,1,1.5.32,1.45,1.45,0,0,1,.61.84A4.43,4.43,0,0,1,86,32.51v14.3a4,4,0,0,1-.14,1.06,1.32,1.32,0,0,1-.63.79,4.15,4.15,0,0,1-2.86.05,1.26,1.26,0,0,1-.61-.57,1.94,1.94,0,0,1-.17-.69,3.54,3.54,0,0,0-.05-.49l0-.76a2.17,2.17,0,0,1-.32.91,4,4,0,0,1-.74.92,4.18,4.18,0,0,1-1,.68A2.79,2.79,0,0,1,78.32,49Zm13.39,0a2.81,2.81,0,0,1-1.55-.33,1.38,1.38,0,0,1-.59-.85,6.18,6.18,0,0,1-.11-1.19V32.51a4.88,4.88,0,0,1,.13-1.21,1.28,1.28,0,0,1,.61-.8,3.16,3.16,0,0,1,1.55-.28,3.33,3.33,0,0,1,1.5.26,1.26,1.26,0,0,1,.61.67,2.47,2.47,0,0,1,.14.78l-.16.5A4,4,0,0,1,95,30.71a2.84,2.84,0,0,1,.84-.53,2.46,2.46,0,0,1,1-.19,3.19,3.19,0,0,1,.59.06,3,3,0,0,1,.67.19,2.72,2.72,0,0,1,.63.34,1.56,1.56,0,0,1,.46.55,1.85,1.85,0,0,1,.17.8,4.67,4.67,0,0,1-.46,2.12,1.43,1.43,0,0,1-1.3.9,1.73,1.73,0,0,1-.59-.1,2.92,2.92,0,0,1-.47-.23,2.18,2.18,0,0,0-.52-.21,2.88,2.88,0,0,0-.71-.07,1,1,0,0,0-1,.51,1.77,1.77,0,0,0-.21.57,3.92,3.92,0,0,0-.06.71v10.6a4.57,4.57,0,0,1-.13,1.16,1.32,1.32,0,0,1-.61.82A3,3,0,0,1,91.71,49Zm16.62.23a6.8,6.8,0,0,1-3.41-.8,5.85,5.85,0,0,1-2.19-2.2,10.55,10.55,0,0,1-1.16-3.12,17.07,17.07,0,0,1-.37-3.61,13.71,13.71,0,0,1,.82-4.88,7.55,7.55,0,0,1,2.39-3.35,6.09,6.09,0,0,1,3.89-1.22,5.29,5.29,0,0,1,2.68.64,5.69,5.69,0,0,1,1.85,1.7,7.38,7.38,0,0,1,1.07,2.31,9.22,9.22,0,0,1,.35,2.44,4.51,4.51,0,0,1-.86,3,3,3,0,0,1-2.35,1h-5.15a5.8,5.8,0,0,0,.31,2.18,3.21,3.21,0,0,0,.93,1.39,2.1,2.1,0,0,0,1.36.47,4.43,4.43,0,0,0,1.08-.11,5.25,5.25,0,0,0,.82-.27,3.77,3.77,0,0,0,.63-.34,3.2,3.2,0,0,1,.57-.31,1.9,1.9,0,0,1,.63-.11,1.2,1.2,0,0,1,.84.31,2.59,2.59,0,0,1,.61.83,2.29,2.29,0,0,1,.29.65,2.8,2.8,0,0,1,.06.61,1.79,1.79,0,0,1-.82,1.34,6.66,6.66,0,0,1-2.12,1.05A9.47,9.47,0,0,1,108.33,49.25Zm-2.51-11H109a1.91,1.91,0,0,0,.9-.15c.16-.1.24-.39.24-.88a5.73,5.73,0,0,0-.2-1.56,2.57,2.57,0,0,0-.63-1.1,1.45,1.45,0,0,0-1.07-.42,1.86,1.86,0,0,0-1.34.55,3.28,3.28,0,0,0-.84,1.49A7.82,7.82,0,0,0,105.82,38.26Zm27.42,10.91a7.12,7.12,0,0,1-3.7-1,8.76,8.76,0,0,1-2.88-2.84,14.64,14.64,0,0,1-1.85-4.41,23.15,23.15,0,0,1-.65-5.68,20.24,20.24,0,0,1,.67-5.41,12.89,12.89,0,0,1,1.92-4.2,8.94,8.94,0,0,1,3-2.69,7.92,7.92,0,0,1,3.85-.93,8.29,8.29,0,0,1,1.45.17,16.61,16.61,0,0,1,1.83.48,7.63,7.63,0,0,1,1.68.76,6.58,6.58,0,0,1,1.33,1,1.63,1.63,0,0,1,.53.94,1.13,1.13,0,0,1-.07.7,4.39,4.39,0,0,1-.38.82,2.65,2.65,0,0,1-.86,1,2.15,2.15,0,0,1-1,.39,1.44,1.44,0,0,1-.71-.16,7.75,7.75,0,0,1-1-.53,4.84,4.84,0,0,0-1-.5,7.46,7.46,0,0,0-1-.28,4.61,4.61,0,0,0-.93-.1A3.36,3.36,0,0,0,131,27.76a6.83,6.83,0,0,0-1.62,3,16.13,16.13,0,0,0-.52,4.58,18.05,18.05,0,0,0,.57,4.8,7.93,7.93,0,0,0,1.61,3.2,3.1,3.1,0,0,0,2.4,1.15,9.67,9.67,0,0,0,1,0,7.68,7.68,0,0,0,.9-.15,3.6,3.6,0,0,0,.87-.35V37.46H134a2.32,2.32,0,0,1-.84-.13.94.94,0,0,1-.52-.55,3.94,3.94,0,0,1-.17-1.34,4.07,4.07,0,0,1,.17-1.37.92.92,0,0,1,.54-.55,2.4,2.4,0,0,1,.85-.14h4.62a2,2,0,0,1,1.83,1.07,2.34,2.34,0,0,1,.27,1.14v9.12a2.83,2.83,0,0,1-.77,1.7,6,6,0,0,1-1.83,1.5,9.28,9.28,0,0,1-1.62.67,13.58,13.58,0,0,1-1.75.44A9.22,9.22,0,0,1,133.24,49.17Zm13.45-22.61a3.21,3.21,0,0,1-1.66-.33,1.35,1.35,0,0,1-.64-.89,5.46,5.46,0,0,1-.14-1.26,4.73,4.73,0,0,1,.15-1.26,1.53,1.53,0,0,1,.67-.86,3.33,3.33,0,0,1,1.66-.32,3,3,0,0,1,1.62.34,1.5,1.5,0,0,1,.65.9,6.07,6.07,0,0,1,0,2.5,1.33,1.33,0,0,1-.65.87A3.29,3.29,0,0,1,146.69,26.56Zm0,22.46a2.77,2.77,0,0,1-1.54-.33,1.29,1.29,0,0,1-.59-.84,5.11,5.11,0,0,1-.12-1.16V32.51a5,5,0,0,1,.12-1.13,1.25,1.25,0,0,1,.61-.82,3.11,3.11,0,0,1,1.56-.3,2.93,2.93,0,0,1,1.53.3,1.38,1.38,0,0,1,.59.84,4.85,4.85,0,0,1,.13,1.18V46.73a4.57,4.57,0,0,1-.13,1.16,1.36,1.36,0,0,1-.61.82A2.93,2.93,0,0,1,146.69,49Zm9.38,0a2.77,2.77,0,0,1-1.5-.31,1.26,1.26,0,0,1-.59-.86,5.36,5.36,0,0,1-.12-1.16V35l-.53,0a1.47,1.47,0,0,1-1.32-.53,3.17,3.17,0,0,1-.36-1.72,2.66,2.66,0,0,1,.42-1.64,1.5,1.5,0,0,1,1.33-.49h.46V28.16a8.21,8.21,0,0,1,.38-2.46,6.3,6.3,0,0,1,1.15-2.12,5.65,5.65,0,0,1,1.92-1.47,6.46,6.46,0,0,1,2.73-.55,3.86,3.86,0,0,1,1.05.14,1.29,1.29,0,0,1,.78.59,3,3,0,0,1,.3,1.56,3.06,3.06,0,0,1-.3,1.53,1.27,1.27,0,0,1-.8.61,5.17,5.17,0,0,1-1.07.11,1.81,1.81,0,0,0-1,.23,1.16,1.16,0,0,0-.48.67,3.71,3.71,0,0,0-.13,1.08V30.6l1.28,0,1.24,0h2.93V26.18A5.13,5.13,0,0,1,164,25a1.18,1.18,0,0,1,.59-.78,3.14,3.14,0,0,1,1.54-.28,3,3,0,0,1,1.53.3,1.34,1.34,0,0,1,.63.82,4.44,4.44,0,0,1,.13,1.13v4.38l1.72-.08a3.73,3.73,0,0,1,1,.14,1.36,1.36,0,0,1,.78.61,3,3,0,0,1,.3,1.54,3,3,0,0,1-.3,1.55,1.28,1.28,0,0,1-.78.59,4.74,4.74,0,0,1-1,.11l-1.72,0V42a6.61,6.61,0,0,0,.15,1.62,1.21,1.21,0,0,0,.54.78,1.91,1.91,0,0,0,1,.23,4.17,4.17,0,0,1,1,.11,1.21,1.21,0,0,1,.71.56,3,3,0,0,1,.26,1.43,2.87,2.87,0,0,1-.32,1.54,1.31,1.31,0,0,1-.8.59,4.17,4.17,0,0,1-1,.12,7.31,7.31,0,0,1-3.34-.69,4.45,4.45,0,0,1-2-2.15,9.1,9.1,0,0,1-.69-3.84V35h-.87l-1,0c-.33,0-.64,0-.92,0s-.84,0-1.3,0l-1.33,0V46.77a4.92,4.92,0,0,1-.13,1.12,1.32,1.32,0,0,1-.63.82A3,3,0,0,1,156.07,49Z"/></svg>