<svg id="Layer_1" data-name="Layer 1" xmlns="http://www.w3.org/2000/svg" viewBox="0 0 115.61 115.64"><defs><style>.cls-1{fill:#5cb847;}</style></defs><title>1</title><path class="cls-1" d="M30.73,115.64H84.88a30.76,30.76,0,0,0,30.73-30.72V26.24H81v6h28.61V84.92A24.71,24.71,0,0,1,84.88,109.6H30.73A24.71,24.71,0,0,1,6.05,84.92V32.28H36.53v-6H0V84.92A30.76,30.76,0,0,0,30.73,115.64Z"/><path class="cls-1" d="M33.5,24.49A22.83,22.83,0,0,1,56.3,1.69h4.87A22.83,22.83,0,0,1,84,24.49v7.79H33.5Zm44.42,0A16.76,16.76,0,0,0,61.17,7.74H56.3A16.76,16.76,0,0,0,39.55,24.49v1.75H77.92Z"/></svg>