<svg id="Layer_1" data-name="Layer 1" xmlns="http://www.w3.org/2000/svg" viewBox="0 0 1920 483.68"><defs><style>.cls-1{fill:#ffefb7;}</style></defs><title>1</title><path class="cls-1" d="M1909.27,11.05c-27.89-16.42-54.82-13.76-81.74,3.44-14,8.91-27.23,19.57-41.68,27.17-25.29,13.31-50.06,11.59-74.78-2.53-14.71-8.4-28.33-19.67-43-28.23C1640.72-5,1614.16-3,1587.77,13.83c-12.06,7.7-23.8,16.31-35.88,23.94C1523,56,1494.24,54.9,1465.64,36.13c-13.9-9.11-27.25-19.81-41.8-27-24.32-12.08-48.31-10.82-72.4,2.34-14.62,8-27.79,19.55-42.26,28-29.46,17.11-57.93,14.77-86.42-3.44-13.93-8.91-27.08-19.87-41.65-27.2C1157.66-3,1134.77-1.5,1111.69,10.68c-15.18,8-28.75,20.13-43.7,28.81-29.17,16.95-57.42,14.62-85.69-3.22-14.21-9-27.55-20.24-42.37-27.63-23.46-11.7-46.36-10.11-69.42,2.18-15.9,8.47-30,21.65-45.83,30.17-28.25,15.15-55.62,12.67-82.87-4.35-11.89-7.42-23-16.8-35-24A86.85,86.85,0,0,0,669,.31c-11.1-1-22.27,2.36-33,7.38-13.44,6.3-25.77,15.67-38.16,24.73C558.89,60.93,521.44,55,484.63,25.17,467.16,11,448.25,1.09,427.79.22c-19.41-.82-37.54,7.87-54.5,20.41C360,30.48,346.67,40.54,331.94,46.1c-26.2,9.88-51.19,4.69-75.31-11.61-10.52-7.1-20.64-15.16-31.42-21.71C213,5.38,200.28,1.16,187.37.43c-11.28-.65-22.77,2-33.78,7.43-14.12,6.91-27,17.08-40.24,26.23-32.7,22.59-65.22,22.63-97.85.14-5.2-3.59-10.33-7.37-15.5-11v460.5H1920V17.84c-3.54-2.37-7.1-4.66-10.73-6.79"/></svg>