<svg id="Layer_1" data-name="Layer 1" xmlns="http://www.w3.org/2000/svg" viewBox="0 0 1920 332.26"><defs><style>.cls-1{fill:#ffefb7;}</style></defs><title>1</title><path class="cls-1" d="M1920,146.71V0H0V300.43c44.47,6.87,89.24,12.69,137,14.22,96.64,3.09,200.18-33.8,295.71-40.53,74.89-5.27,144.84,18.49,216.81,29.08,40.88,6,73.29,9.23,106.43,9.63,12.86.16,25.69.76,38.48,2.13,80.66,8.65,170.35,4.31,265.11-7.33,65.23-7.06,159.38-37.71,226-36.37,81.7,1.63,160.15,31.3,239.6,46.18v.05l4.29.73c4.09.73,8.18,1.44,12.27,2.08a935.65,935.65,0,0,0,120.44,11.77c84,2.69,173.21-24.82,257.85-36.48V146.71"/></svg>